#!OML:ASF H:\Terrain\Walking\May29\JustinRory\Justin.ASF
:FULLY-SPECIFIED
:DEGREES
1
root 4.502 14.9255 -16.4626 2.30162 -10.7374 -7.04373 
lowerback 26.9397 -0.236013 5.4019 
upperback 6.54851 1.5154 4.72815 
thorax -7.59913 0.623073 1.65442 
lowerneck -19.4347 7.8867 -7.63842 
upperneck 21.9391 15.1985 -7.22236 
head 10.3561 5.43359 0.858148 
rclavicle -4.37326e-15 5.64548e-14 
rhumerus -27.3687 9.6716 -81.0025 
rradius 82.6766 
rwrist -5.48509 
rhand -21.2103 36.0991 
rfingers 7.12502 
rthumb 5.17132 6.18219 
lclavicle -4.37326e-15 5.64548e-14 
lhumerus -29.43 12.8619 78.8571 
lradius 84.7804 
lwrist -34.0343 
lhand -24.1844 33.735 
lfingers 7.12502 
lthumb 2.29932 63.7024 
rfemur -36.5068 -1.44216 11.7197 
rtibia 91.624 
rfoot -10.006 -4.63089 
rtoes -5.5249 
lfemur -48.9634 3.99 -13.1296 
ltibia 74.4378 
lfoot -22.6089 -2.96709 
ltoes -12.7626 
2
root 4.58283 14.9337 -16.0988 1.94256 -12.1106 -6.55677 
lowerback 27.7516 -0.54315 5.53436 
upperback 6.63809 1.18736 4.49337 
thorax -7.89238 0.454336 1.43099 
lowerneck -19.3463 8.3583 -7.71797 
upperneck 21.4761 16.0077 -8.02819 
head 10.2549 5.73754 0.697608 
rclavicle 1.74931e-14 -3.18055e-15 
rhumerus -27.3011 8.95802 -80.8858 
rradius 81.789 
rwrist -5.27441 
rhand -20.8137 37.1929 
rfingers 7.12502 
rthumb 5.55427 7.28574 
lclavicle 1.74931e-14 -3.18055e-15 
lhumerus -30.4467 13.5556 77.3448 
lradius 84.4337 
lwrist -33.013 
lhand -24.501 34.3993 
lfingers 7.12502 
lthumb 1.99354 64.3698 
rfemur -39.5414 -1.49868 11.1349 
rtibia 91.1447 
rfoot -11.3286 -6.55836 
rtoes -2.60042 
lfemur -47.729 3.93212 -13.4113 
ltibia 76.594 
lfoot -23.8707 -5.70576 
ltoes 5.32008 
3
root 4.66359 14.9031 -15.7285 1.48721 -13.6639 -5.99052 
lowerback 28.5022 -0.800061 5.71006 
upperback 6.85802 0.914189 4.20288 
thorax -8.0049 0.314386 1.10334 
lowerneck -19.2298 8.79088 -7.51976 
upperneck 20.7694 16.7032 -9.09883 
head 10.1173 6.00445 0.390522 
rclavicle 3.57812e-15 -5.56597e-14 
rhumerus -27.0047 8.0862 -80.654 
rradius 80.598 
rwrist -5.23955 
rhand -21.7085 36.7967 
rfingers 7.12502 
rthumb 4.69028 6.86866 
lclavicle 3.57812e-15 -5.56597e-14 
lhumerus -32.024 14.8201 76.4577 
lradius 84.7828 
lwrist -32.5653 
lhand -24.9032 35.0738 
lfingers 7.12502 
lthumb 1.60502 65.0475 
rfemur -42.6166 -1.39775 10.5428 
rtibia 90.1297 
rfoot -12.1201 -8.06973 
rtoes -1.85619 
lfemur -46.4063 4.71604 -14.6348 
ltibia 77.9471 
lfoot -24.8141 -3.68551 
ltoes -5.25798 
4
root 4.74545 14.8636 -15.3522 1.19513 -15.109 -5.33007 
lowerback 29.0188 -1.0542 5.86645 
upperback 7.0387 0.630605 3.97117 
thorax -8.04958 0.172407 0.85641 
lowerneck -19.2405 9.21606 -7.52747 
upperneck 20.218 17.4088 -9.89661 
head 10.0224 6.27921 0.217358 
rclavicle -3.77691e-14 -5.56597e-15 
rhumerus -26.494 7.191 -80.2246 
rradius 79.1932 
rwrist -5.32509 
rhand -21.7792 36.7834 
rfingers 7.12502 
rthumb 4.62193 6.85386 
lclavicle -3.77691e-14 -5.56597e-15 
lhumerus -33.3719 16.546 76.004 
lradius 84.985 
lwrist -32.3315 
lhand -24.4388 35.2763 
lfingers 7.12502 
lthumb 2.05359 65.2461 
rfemur -45.7721 -1.49218 9.93324 
rtibia 88.7001 
rfoot -12.7759 -8.59108 
rtoes -0.19122 
lfemur -45.3318 5.49176 -16.0077 
ltibia 79.394 
lfoot -25.205 -1.43259 
ltoes -16.9734 
5
root 4.82063 14.8456 -14.9762 1.05227 -16.7118 -5.0697 
lowerback 29.5866 -1.26631 6.23055 
upperback 7.15772 0.482921 3.86669 
thorax -8.18405 0.0888263 0.589793 
lowerneck -19.2041 9.74847 -7.81751 
upperneck 19.835 18.2587 -10.314 
head 9.91858 6.6371 0.229717 
rclavicle 5.56597e-15 -5.56597e-14 
rhumerus -25.9524 6.25002 -79.7738 
rradius 77.6455 
rwrist -5.72225 
rhand -22.4632 36.5081 
rfingers 7.12502 
rthumb 3.96146 6.56518 
lclavicle 5.56597e-15 -5.56597e-14 
lhumerus -33.4129 15.8849 75.0102 
lradius 82.3427 
lwrist -30.1255 
lhand -24.8596 36.7121 
lfingers 7.12502 
lthumb 1.64714 66.6854 
rfemur -48.8423 -1.09224 9.97278 
rtibia 86.5413 
rfoot -13.6419 -8.39174 
rtoes -0.0670509 
lfemur -44.2982 6.27963 -16.5569 
ltibia 80.9188 
lfoot -25.0719 -1.98242 
ltoes -17.6708 
6
root 4.88662 14.8346 -14.6095 0.715398 -18.2883 -4.79775 
lowerback 30.5719 -1.47265 6.56264 
upperback 7.20449 0.375132 3.69374 
thorax -8.59932 0.0169992 0.258575 
lowerneck -19.2937 10.2645 -7.83881 
upperneck 19.8552 19.0836 -10.6714 
head 10.0011 6.96372 0.23914 
rclavicle 9.93923e-15 -2.38542e-14 
rhumerus -25.5977 5.07245 -79.4227 
rradius 76.031 
rwrist -6.16767 
rhand -24.4576 34.7157 
rfingers 7.12502 
rthumb 2.03541 4.74567 
lclavicle 9.93923e-15 -2.38542e-14 
lhumerus -35.7352 18.2779 74.2716 
lradius 83.5997 
lwrist -30.1841 
lhand -24.1298 36.3039 
lfingers 7.12502 
lthumb 2.35202 66.2707 
rfemur -51.6507 -0.325795 10.1441 
rtibia 83.7202 
rfoot -14.1722 -8.09772 
rtoes 0.723728 
lfemur -43.2361 7.29518 -17.031 
ltibia 82.5621 
lfoot -24.3261 -2.75599 
ltoes -19.0855 
7
root 4.94403 14.8263 -14.2382 0.105285 -19.6442 -4.1932 
lowerback 31.7761 -1.73029 6.73202 
upperback 6.9696 0.166791 3.39027 
thorax -8.66158 -0.108515 -0.06033 
lowerneck -19.3216 10.6601 -7.26706 
upperneck 19.6223 19.6839 -11.6362 
head 10.1139 7.18063 -0.0630561 
rclavicle 4.17448e-14 -1.03368e-14 
rhumerus -25.3408 3.73846 -79.0688 
rradius 74.6534 
rwrist -6.36412 
rhand -23.9289 34.4325 
rfingers 7.12502 
rthumb 2.54602 4.46793 
lclavicle 4.17448e-14 -1.03368e-14 
lhumerus -36.4231 19.1985 73.4615 
lradius 82.6726 
lwrist -29.3707 
lhand -24.0263 36.0594 
lfingers 7.12502 
lthumb 2.45194 66.0251 
rfemur -53.7538 0.244144 10.0831 
rtibia 80.2637 
rfoot -13.9398 -7.51487 
rtoes -0.100699 
lfemur -42.2332 8.41643 -17.8884 
ltibia 84.2827 
lfoot -22.9195 -3.1643 
ltoes -23.3573 
8
root 4.99042 14.822 -13.854 -0.864464 -21.1179 -3.22768 
lowerback 32.562 -1.74779 6.39653 
upperback 7.4044 0.0226816 3.07279 
thorax -8.50304 -0.169742 -0.15698 
lowerneck -19.1202 10.9875 -6.70505 
upperneck 18.9866 20.1487 -12.8543 
head 10.0777 7.3602 -0.483643 
rclavicle 3.1408e-14 -3.49861e-14 
rhumerus -25.0814 2.37333 -78.6118 
rradius 73.5475 
rwrist -6.74396 
rhand -23.9209 34.006 
rfingers 7.12502 
rthumb 2.55374 4.04159 
lclavicle 3.1408e-14 -3.49861e-14 
lhumerus -36.5891 19.2349 72.9662 
lradius 81.3113 
lwrist -28.0653 
lhand -23.6385 36.1472 
lfingers 7.12502 
lthumb 2.82647 66.1082 
rfemur -54.7747 0.834477 9.84757 
rtibia 76.18 
rfoot -13.3217 -6.28296 
rtoes -2.61273 
lfemur -41.3269 9.65071 -19.0116 
ltibia 86.0868 
lfoot -20.5065 -5.18201 
ltoes -23.6892 
9
root 5.03327 14.8485 -13.4723 -1.84655 -22.6636 -2.32797 
lowerback 33.5232 -1.65823 6.03906 
upperback 7.67354 0.0342946 2.82989 
thorax -8.58199 -0.166488 -0.215265 
lowerneck -19.0017 11.2276 -6.91311 
upperneck 18.9832 20.5823 -13.1079 
head 10.0879 7.52129 -0.4796 
rclavicle -1.39149e-14 1.11319e-14 
rhumerus -25.1433 1.02921 -78.133 
rradius 72.5475 
rwrist -7.31112 
rhand -24.367 33.3281 
rfingers 7.12502 
rthumb 2.12288 3.35895 
lclavicle -1.39149e-14 1.11319e-14 
lhumerus -36.5948 18.5239 72.7099 
lradius 79.4726 
lwrist -26.4434 
lhand -23.9096 36.8037 
lfingers 7.12502 
lthumb 2.56463 66.7681 
rfemur -55.7811 1.52687 9.78087 
rtibia 71.7767 
rfoot -12.141 -4.77161 
rtoes -6.09139 
lfemur -40.5031 10.9799 -19.8963 
ltibia 87.7634 
lfoot -16.8672 -7.83316 
ltoes -22.0194 
10
root 5.07273 14.8609 -13.0902 -2.58131 -23.9374 -1.87167 
lowerback 34.6831 -1.79389 6.3582 
upperback 7.64581 0.0317585 2.63352 
thorax -8.91852 -0.186596 -0.54236 
lowerneck -19.0575 11.2878 -7.68879 
upperneck 19.5259 20.8206 -12.4802 
head 10.1438 7.59204 -0.129545 
rclavicle -2.98177e-14 -1.11319e-14 
rhumerus -25.4335 -0.139242 -77.6394 
rradius 71.59 
rwrist -7.80706 
rhand -25.2095 32.743 
rfingers 7.12502 
rthumb 1.30919 2.76725 
lclavicle -2.98177e-14 -1.11319e-14 
lhumerus -36.5454 18.3585 72.4846 
lradius 77.6069 
lwrist -25.2528 
lhand -24.6352 36.8724 
lfingers 7.12502 
lthumb 1.86386 66.8441 
rfemur -56.4 1.95866 10.2986 
rtibia 67.0847 
rfoot -10.4633 -3.50215 
rtoes -11.0825 
lfemur -39.9791 12.1795 -20.1934 
ltibia 89.4367 
lfoot -12.8535 -9.63311 
ltoes -23.1088 
